<?xml version="1.0" encoding="UTF-8" standalone="no"?>
<svg
   xmlns:dc="http://purl.org/dc/elements/1.1/"
   xmlns:cc="http://creativecommons.org/ns#"
   xmlns:rdf="http://www.w3.org/1999/02/22-rdf-syntax-ns#"
   xmlns:svg="http://www.w3.org/2000/svg"
   xmlns="http://www.w3.org/2000/svg"
   xmlns:sodipodi="http://sodipodi.sourceforge.net/DTD/sodipodi-0.dtd"
   xmlns:inkscape="http://www.inkscape.org/namespaces/inkscape"
   viewBox="0 0 1119.7532 147.49002"
   height="3.9023399cm"
   width="29.626802cm"
   xml:space="preserve"
   id="svg2"
   version="1.1"
   sodipodi:docname="supervision.svg"
   inkscape:version="0.92.4 (5da689c313, 2019-01-14)"><sodipodi:namedview
     pagecolor="#ffffff"
     bordercolor="#666666"
     borderopacity="1"
     objecttolerance="10"
     gridtolerance="10"
     guidetolerance="10"
     inkscape:pageopacity="0"
     inkscape:pageshadow="2"
     inkscape:window-width="1920"
     inkscape:window-height="1017"
     id="namedview3730"
     showgrid="false"
     inkscape:pagecheckerboard="true"
     inkscape:snap-page="true"
     inkscape:snap-grids="false"
     inkscape:snap-to-guides="false"
     inkscape:object-nodes="true"
     inkscape:snap-nodes="true"
     units="cm"
     inkscape:zoom="0.42558838"
     inkscape:cx="-6.1892694"
     inkscape:cy="135.79043"
     inkscape:window-x="-8"
     inkscape:window-y="-8"
     inkscape:window-maximized="1"
     inkscape:current-layer="g12" /><metadata
     id="metadata8"><rdf:RDF><cc:Work
         rdf:about=""><dc:format>image/svg+xml</dc:format><dc:type
           rdf:resource="http://purl.org/dc/dcmitype/StillImage" /><dc:title></dc:title></cc:Work></rdf:RDF></metadata><defs
     id="defs6" /><g
     id="g12"
     transform="matrix(0.13333333,0,0,-0.13333333,27.150082,146.27824)"><g
       id="g3747"
       transform="translate(296.7813,-7.4550002e-4)"><path
         id="path14"
         style="fill:#eb222c;fill-opacity:1;fill-rule:nonzero;stroke:none;stroke-width:1.05352986"
         d="M 6323.507,734.26469 6707.5818,-4.2370606e-5 H 5939.5164 L 6323.507,734.26469"
         inkscape:connector-curvature="0" /><path
         id="path16"
         style="fill:#231f20;fill-opacity:1;fill-rule:nonzero;stroke:none;stroke-width:1.05352986"
         d="m 5792.5279,514.87973 c 0,-137.5436 44.5011,-263.71961 118.6696,-362.49225 l 133.7562,255.71172 c -13.2324,38.68351 -20.3964,80.65193 -20.3964,124.73584 0,187.86545 131.8177,340.24486 294.4827,340.24486 162.665,0 294.4827,-152.37941 294.4827,-340.24486 0,-40.03835 -5.8998,-78.47112 -16.9408,-114.11836 l 135.6104,-259.25054 c 70.9658,97.68119 113.3598,221.15068 113.3598,355.41359 C 6845.5521,831.4444 6609.8143,1088 6319.04,1088 6028.2657,1088 5792.5279,831.4444 5792.5279,514.87973"
         inkscape:connector-curvature="0" /></g><path
       inkscape:connector-curvature="0"
       d="m 5756.2966,-7.8760002e-4 h 220.5126 V 1087.9993 h -220.5126 z"
       style="fill:#231f20;fill-opacity:1;fill-rule:nonzero;stroke:none;stroke-width:1.08478916"
       id="path18" /><path
       inkscape:connector-curvature="0"
       d="m 7254.8334,9.0867244 h 216.8318 V 720.51108 L 8031.878,-9.0882998 h 162.6452 V 1078.9108 H 7977.6914 V 367.48631 L 7417.4786,1097.0868 H 7254.8334 V 9.0867244"
       style="fill:#231f20;fill-opacity:1;fill-rule:nonzero;stroke:none;stroke-width:1.06666577"
       id="path20" /><path
       inkscape:connector-curvature="0"
       d="m 4655.3766,-7.6990002e-4 h 220.5126 V 1087.9992 h -220.5126 z"
       style="fill:#231f20;fill-opacity:1;fill-rule:nonzero;stroke:none;stroke-width:1.08478904"
       id="path22" /><path
       inkscape:connector-curvature="0"
       d="m 4542.8766,1087.9993 h -234.9227 l -243.968,-699.3921 -243.8826,699.3921 H 3585.1806 L 4000.7539,-7.8790002e-4 h 126.5494 L 4542.8766,1087.9993"
       style="fill:#231f20;fill-opacity:1;fill-rule:nonzero;stroke:none;stroke-width:1.0666666"
       id="path24" /><path
       inkscape:connector-curvature="0"
       d="M 2239.5732,1080.2807 V -7.7193938 H 2809.304 V 176.69881 h -349.2151 v 295.05803 h 330.8171 v 184.41398 h -330.8171 v 239.69587 h 330.8171 v 184.41401 h -551.3328"
       style="fill:#231f20;fill-opacity:1;fill-rule:nonzero;stroke:none;stroke-width:1.08478808"
       id="path26" /><path
       inkscape:connector-curvature="0"
       d="m 1677.7973,582.40955 v 313.4571 h 73.5053 c 91.2958,0 165.4084,-55.88828 165.4084,-147.53118 0,-91.63965 -74.1126,-165.92592 -165.4084,-165.92592 z M 1457.2816,1080.2807 V -7.7193962 h 220.5157 V 397.99557 h 157.4245 c 129.3067,0 253.9272,111.16583 279.0075,238.39086 3.0373,15.18703 12.8439,66.5615 12.8439,102.75004 0,36.18744 -9.8933,86.61273 -13.1043,101.44829 -27.597,127.75115 -167.4045,239.69594 -297.1451,239.69594 h -359.5422"
       style="fill:#231f20;fill-opacity:1;fill-rule:nonzero;stroke:none;stroke-width:1.08478808"
       id="path28" /><path
       inkscape:connector-curvature="0"
       d="m 3142.3197,582.40953 v 313.4571 h 73.592 c 91.2958,0 165.3218,-55.88829 165.3218,-147.53118 0,-91.63964 -74.026,-165.92592 -165.3218,-165.92592 z M 2921.804,1080.2807 V -7.7193901 h 220.5157 V 397.99557 h 21.0883 L 3399.6315,-7.7193901 h 275.7097 L 3378.63,411.44477 c 97.7177,33.23464 180.2483,124.01839 200.2085,224.94164 3.0373,15.18703 12.7571,66.56151 12.7571,102.75003 0,36.18745 -9.8933,86.61274 -13.1043,101.4483 -27.597,127.75115 -167.4045,239.69596 -297.0584,239.69596 H 2921.804"
       style="fill:#231f20;fill-opacity:1;fill-rule:nonzero;stroke:none;stroke-width:1.08478796"
       id="path30" /><path
       inkscape:connector-curvature="0"
       d="m 954.72851,-7.7193771 11.1484,0.3306457 c -2.1471,-0.2500005 -11.1484,-0.3306457 -11.1484,-0.3306457 z M 564.70008,1080.2806 V 353.82076 c 0,-47.73367 -3.46839,-100.4191 19.24129,-149.39045 37.08077,-79.85549 116.52026,-149.472216 190.432,-170.528732 13.9551,-3.963665 84.47897,-37.1612801 168.54614,-41.2096642 2.3122,-0.2459686 11.809,-0.4112909 11.809,-0.4112909 0,0 9.0013,0.08065 11.1484,0.3306457 84.23229,3.8830628 155.08639,37.2418974 169.04259,41.2903094 73.9096,21.056516 153.3522,90.673242 190.4309,170.528732 22.7097,48.97135 19.2413,101.65678 19.2413,149.39045 V 1080.2806 H 1134.7543 V 369.59161 c 0,-100.5853 -80.351,-182.33911 -180.10839,-184.23846 -99.75641,1.89935 -180.10738,83.65316 -180.10738,184.23846 V 1080.2806 H 564.70008"
       style="fill:#231f20;fill-opacity:1;fill-rule:nonzero;stroke:none;stroke-width:1.03225815"
       id="path32" /><path
       inkscape:connector-curvature="0"
       d="M -81.171262,316.75618 -203.62562,185.5435 c 215.654068,-306.5421 655.63581,-243.745753 655.63581,140.46778 0,209.12148 -134.26673,277.86499 -306.37704,345.95475 C -107.53288,772.10526 94.904078,1032.87 303.7756,835.22818 L 406.97711,968.09545 C 336.82587,1036.836 227.18159,1086.1636 128.86219,1081.0406 -55.064632,1071.3012 -176.85293,966.36029 -176.85293,765.00049 c 0,-331.57996 436.42688,-261.34813 436.42688,-456.51102 0,-184.91524 -232.840182,-165.9134 -340.745212,8.26671"
       style="fill:#231f20;fill-opacity:1;fill-rule:nonzero;stroke:none;stroke-width:1.03282106"
       id="path34" /><path
       inkscape:connector-curvature="0"
       d="M 5110.798,324.55086 4988.3892,193.38367 c 215.5782,-306.43582 655.4074,-243.661243 655.4074,140.41909 0,209.04897 -134.2201,277.76867 -306.2698,345.83483 -253.0773,100.10451 -50.7145,360.77861 158.0908,163.20555 l 103.1637,132.82119 c -70.1249,68.71657 -179.7312,118.02697 -278.0217,112.90597 -183.861,-9.7361 -305.609,-114.64051 -305.609,-315.93052 0,-331.465 436.2775,-261.25752 436.2775,-456.35275 0,-184.85114 -232.7584,-165.85588 -340.6301,8.26383"
       style="fill:#231f20;fill-opacity:1;fill-rule:nonzero;stroke:none;stroke-width:1.03246295"
       id="path36" /></g></svg>